<mxfile>
    <diagram id="kgpKYQtTHZ0yAKxKKP6v" name="Page-1">
        <mxGraphModel dx="1645" dy="904" grid="1" gridSize="10" guides="1" tooltips="1" connect="1" arrows="1" fold="1" page="1" pageScale="1" pageWidth="850" pageHeight="1100" math="0" shadow="0">
            <root>
                <mxCell id="0"/>
                <mxCell id="1" parent="0"/>
                <mxCell id="T3V68lNRfUXcoH-KaOi2-9" value="Servicio de autenticación" style="shape=umlLifeline;perimeter=lifelinePerimeter;whiteSpace=wrap;html=1;container=1;collapsible=0;recursiveResize=0;outlineConnect=0;size=33;fillColor=#dae8fc;strokeColor=#6c8ebf;" parent="1" vertex="1">
                    <mxGeometry x="460" y="87.5" width="100" height="352.5" as="geometry"/>
                </mxCell>
                <mxCell id="T3V68lNRfUXcoH-KaOi2-18" value="" style="html=1;points=[];perimeter=orthogonalPerimeter;fillColor=#dae8fc;strokeColor=#6c8ebf;" parent="T3V68lNRfUXcoH-KaOi2-9" vertex="1">
                    <mxGeometry x="45" y="62.5" width="10" height="257.5" as="geometry"/>
                </mxCell>
                <mxCell id="T3V68lNRfUXcoH-KaOi2-31" style="edgeStyle=orthogonalEdgeStyle;rounded=0;orthogonalLoop=1;jettySize=auto;html=1;" parent="T3V68lNRfUXcoH-KaOi2-9" source="T3V68lNRfUXcoH-KaOi2-18" edge="1">
                    <mxGeometry relative="1" as="geometry">
                        <mxPoint x="45" y="186.5" as="targetPoint"/>
                        <Array as="points">
                            <mxPoint x="30" y="153"/>
                            <mxPoint x="30" y="186"/>
                        </Array>
                    </mxGeometry>
                </mxCell>
                <mxCell id="T3V68lNRfUXcoH-KaOi2-10" value="" style="shape=umlLifeline;participant=umlActor;perimeter=lifelinePerimeter;whiteSpace=wrap;html=1;container=1;collapsible=0;recursiveResize=0;verticalAlign=top;spacingTop=36;outlineConnect=0;size=60;" parent="1" vertex="1">
                    <mxGeometry x="50" y="70" width="30" height="370" as="geometry"/>
                </mxCell>
                <mxCell id="T3V68lNRfUXcoH-KaOi2-13" value="" style="html=1;points=[];perimeter=orthogonalPerimeter;fillColor=#dae8fc;strokeColor=#6c8ebf;" parent="T3V68lNRfUXcoH-KaOi2-10" vertex="1">
                    <mxGeometry x="10" y="75" width="10" height="275" as="geometry"/>
                </mxCell>
                <mxCell id="T3V68lNRfUXcoH-KaOi2-11" value="API" style="shape=umlLifeline;perimeter=lifelinePerimeter;whiteSpace=wrap;html=1;container=1;collapsible=0;recursiveResize=0;outlineConnect=0;size=33;fillColor=#dae8fc;strokeColor=#6c8ebf;" parent="1" vertex="1">
                    <mxGeometry x="220" y="87.5" width="100" height="352.5" as="geometry"/>
                </mxCell>
                <mxCell id="T3V68lNRfUXcoH-KaOi2-15" value="" style="html=1;points=[];perimeter=orthogonalPerimeter;fillColor=#dae8fc;strokeColor=#6c8ebf;" parent="T3V68lNRfUXcoH-KaOi2-11" vertex="1">
                    <mxGeometry x="45" y="57.5" width="10" height="272.5" as="geometry"/>
                </mxCell>
                <mxCell id="T3V68lNRfUXcoH-KaOi2-12" value="&lt;div&gt;Modelo&lt;/div&gt;" style="shape=umlLifeline;perimeter=lifelinePerimeter;whiteSpace=wrap;html=1;container=1;collapsible=0;recursiveResize=0;outlineConnect=0;size=33;fillColor=#dae8fc;strokeColor=#6c8ebf;" parent="1" vertex="1">
                    <mxGeometry x="710" y="87.5" width="100" height="300" as="geometry"/>
                </mxCell>
                <mxCell id="T3V68lNRfUXcoH-KaOi2-22" value="" style="html=1;points=[];perimeter=orthogonalPerimeter;fillColor=#dae8fc;strokeColor=#6c8ebf;" parent="T3V68lNRfUXcoH-KaOi2-12" vertex="1">
                    <mxGeometry x="45" y="92.5" width="10" height="47.5" as="geometry"/>
                </mxCell>
                <mxCell id="pP_pCWLIg7NTH3UdQHsi-1" value="" style="html=1;points=[];perimeter=orthogonalPerimeter;fillColor=#dae8fc;strokeColor=#6c8ebf;" parent="T3V68lNRfUXcoH-KaOi2-12" vertex="1">
                    <mxGeometry x="45" y="202.5" width="10" height="34.5" as="geometry"/>
                </mxCell>
                <mxCell id="T3V68lNRfUXcoH-KaOi2-16" style="edgeStyle=orthogonalEdgeStyle;rounded=0;orthogonalLoop=1;jettySize=auto;html=1;entryX=-0.029;entryY=0.058;entryDx=0;entryDy=0;entryPerimeter=0;" parent="1" source="T3V68lNRfUXcoH-KaOi2-13" target="T3V68lNRfUXcoH-KaOi2-15" edge="1">
                    <mxGeometry relative="1" as="geometry">
                        <mxPoint x="260" y="160" as="targetPoint"/>
                        <Array as="points">
                            <mxPoint x="150" y="160"/>
                        </Array>
                    </mxGeometry>
                </mxCell>
                <mxCell id="T3V68lNRfUXcoH-KaOi2-17" value="1: login(usuario, contraseña)" style="edgeLabel;html=1;align=center;verticalAlign=middle;resizable=0;points=[];" parent="T3V68lNRfUXcoH-KaOi2-16" vertex="1" connectable="0">
                    <mxGeometry x="-0.4153" y="1" relative="1" as="geometry">
                        <mxPoint x="33" y="-11" as="offset"/>
                    </mxGeometry>
                </mxCell>
                <mxCell id="T3V68lNRfUXcoH-KaOi2-19" style="edgeStyle=orthogonalEdgeStyle;rounded=0;orthogonalLoop=1;jettySize=auto;html=1;entryX=0.021;entryY=0.089;entryDx=0;entryDy=0;entryPerimeter=0;" parent="1" source="T3V68lNRfUXcoH-KaOi2-15" target="T3V68lNRfUXcoH-KaOi2-18" edge="1">
                    <mxGeometry relative="1" as="geometry">
                        <mxPoint x="500" y="170" as="targetPoint"/>
                        <Array as="points">
                            <mxPoint x="360" y="173"/>
                            <mxPoint x="360" y="173"/>
                        </Array>
                    </mxGeometry>
                </mxCell>
                <mxCell id="T3V68lNRfUXcoH-KaOi2-20" value="1.1: generarToken(usuario, contraseña)" style="edgeLabel;html=1;align=center;verticalAlign=middle;resizable=0;points=[];" parent="T3V68lNRfUXcoH-KaOi2-19" vertex="1" connectable="0">
                    <mxGeometry x="0.1455" y="1" relative="1" as="geometry">
                        <mxPoint x="-19" y="-13" as="offset"/>
                    </mxGeometry>
                </mxCell>
                <mxCell id="T3V68lNRfUXcoH-KaOi2-23" style="edgeStyle=orthogonalEdgeStyle;rounded=0;orthogonalLoop=1;jettySize=auto;html=1;" parent="1" source="T3V68lNRfUXcoH-KaOi2-18" target="T3V68lNRfUXcoH-KaOi2-22" edge="1">
                    <mxGeometry relative="1" as="geometry">
                        <mxPoint x="756" y="189" as="targetPoint"/>
                        <Array as="points">
                            <mxPoint x="690" y="185"/>
                            <mxPoint x="690" y="185"/>
                        </Array>
                    </mxGeometry>
                </mxCell>
                <mxCell id="T3V68lNRfUXcoH-KaOi2-24" value="1.1.1: obtenerDatos(usuario)" style="edgeLabel;html=1;align=center;verticalAlign=middle;resizable=0;points=[];" parent="T3V68lNRfUXcoH-KaOi2-23" vertex="1" connectable="0">
                    <mxGeometry x="-0.1568" y="1" relative="1" as="geometry">
                        <mxPoint x="14" y="-8" as="offset"/>
                    </mxGeometry>
                </mxCell>
                <mxCell id="T3V68lNRfUXcoH-KaOi2-25" style="edgeStyle=orthogonalEdgeStyle;rounded=0;orthogonalLoop=1;jettySize=auto;html=1;dashed=1;" parent="1" target="T3V68lNRfUXcoH-KaOi2-18" edge="1">
                    <mxGeometry relative="1" as="geometry">
                        <mxPoint x="755.57" y="220" as="sourcePoint"/>
                        <mxPoint x="515.0000000000001" y="206.56000000000006" as="targetPoint"/>
                        <Array as="points">
                            <mxPoint x="580" y="220"/>
                            <mxPoint x="580" y="220"/>
                        </Array>
                    </mxGeometry>
                </mxCell>
                <mxCell id="T3V68lNRfUXcoH-KaOi2-26" value="1.1.2: Datos usuario" style="edgeLabel;html=1;align=center;verticalAlign=middle;resizable=0;points=[];" parent="T3V68lNRfUXcoH-KaOi2-25" vertex="1" connectable="0">
                    <mxGeometry x="0.1781" y="2" relative="1" as="geometry">
                        <mxPoint x="17" y="-12" as="offset"/>
                    </mxGeometry>
                </mxCell>
                <mxCell id="T3V68lNRfUXcoH-KaOi2-29" value="[usuario y contraseña válidos]" style="text;html=1;strokeColor=none;fillColor=none;align=center;verticalAlign=middle;whiteSpace=wrap;rounded=0;" parent="1" vertex="1">
                    <mxGeometry x="70" y="242.5" width="180" height="20" as="geometry"/>
                </mxCell>
                <mxCell id="T3V68lNRfUXcoH-KaOi2-32" value="1.2: generaTokens(clave privada)" style="text;html=1;strokeColor=none;fillColor=none;align=center;verticalAlign=middle;whiteSpace=wrap;rounded=0;" parent="1" vertex="1">
                    <mxGeometry x="310" y="250" width="180" height="20" as="geometry"/>
                </mxCell>
                <mxCell id="T3V68lNRfUXcoH-KaOi2-34" style="edgeStyle=orthogonalEdgeStyle;rounded=0;orthogonalLoop=1;jettySize=auto;html=1;dashed=1;" parent="1" source="T3V68lNRfUXcoH-KaOi2-18" edge="1">
                    <mxGeometry relative="1" as="geometry">
                        <mxPoint x="274" y="310" as="targetPoint"/>
                        <Array as="points">
                            <mxPoint x="460" y="310"/>
                            <mxPoint x="460" y="310"/>
                        </Array>
                    </mxGeometry>
                </mxCell>
                <mxCell id="T3V68lNRfUXcoH-KaOi2-35" value="&lt;div&gt;1.4: ambos tokens&lt;/div&gt;" style="edgeLabel;html=1;align=center;verticalAlign=middle;resizable=0;points=[];" parent="T3V68lNRfUXcoH-KaOi2-34" vertex="1" connectable="0">
                    <mxGeometry x="0.1634" y="1" relative="1" as="geometry">
                        <mxPoint x="9" y="-11" as="offset"/>
                    </mxGeometry>
                </mxCell>
                <mxCell id="T3V68lNRfUXcoH-KaOi2-36" style="edgeStyle=orthogonalEdgeStyle;rounded=0;orthogonalLoop=1;jettySize=auto;html=1;dashed=1;" parent="1" source="T3V68lNRfUXcoH-KaOi2-15" target="T3V68lNRfUXcoH-KaOi2-13" edge="1">
                    <mxGeometry relative="1" as="geometry">
                        <Array as="points">
                            <mxPoint x="120" y="320"/>
                            <mxPoint x="120" y="320"/>
                        </Array>
                    </mxGeometry>
                </mxCell>
                <mxCell id="T3V68lNRfUXcoH-KaOi2-37" value="1.5: ambos tokens" style="edgeLabel;html=1;align=center;verticalAlign=middle;resizable=0;points=[];" parent="T3V68lNRfUXcoH-KaOi2-36" vertex="1" connectable="0">
                    <mxGeometry x="-0.1841" relative="1" as="geometry">
                        <mxPoint x="-16" y="-10" as="offset"/>
                    </mxGeometry>
                </mxCell>
                <mxCell id="T3V68lNRfUXcoH-KaOi2-38" style="edgeStyle=orthogonalEdgeStyle;rounded=0;orthogonalLoop=1;jettySize=auto;html=1;dashed=1;entryX=1.4;entryY=0.806;entryDx=0;entryDy=0;entryPerimeter=0;" parent="1" source="T3V68lNRfUXcoH-KaOi2-18" target="T3V68lNRfUXcoH-KaOi2-15" edge="1">
                    <mxGeometry relative="1" as="geometry">
                        <Array as="points">
                            <mxPoint x="390" y="365"/>
                        </Array>
                    </mxGeometry>
                </mxCell>
                <mxCell id="T3V68lNRfUXcoH-KaOi2-39" value="1.6: error" style="edgeLabel;html=1;align=center;verticalAlign=middle;resizable=0;points=[];" parent="T3V68lNRfUXcoH-KaOi2-38" vertex="1" connectable="0">
                    <mxGeometry x="0.17" y="-3" relative="1" as="geometry">
                        <mxPoint x="27" y="-12" as="offset"/>
                    </mxGeometry>
                </mxCell>
                <mxCell id="T3V68lNRfUXcoH-KaOi2-40" style="edgeStyle=orthogonalEdgeStyle;rounded=0;orthogonalLoop=1;jettySize=auto;html=1;dashed=1;" parent="1" source="T3V68lNRfUXcoH-KaOi2-15" edge="1">
                    <mxGeometry relative="1" as="geometry">
                        <mxPoint x="71" y="380" as="targetPoint"/>
                        <Array as="points">
                            <mxPoint x="71" y="380"/>
                        </Array>
                    </mxGeometry>
                </mxCell>
                <mxCell id="T3V68lNRfUXcoH-KaOi2-41" value="&lt;div&gt;1.7: error&lt;/div&gt;" style="edgeLabel;html=1;align=center;verticalAlign=middle;resizable=0;points=[];" parent="T3V68lNRfUXcoH-KaOi2-40" vertex="1" connectable="0">
                    <mxGeometry x="-0.1703" y="2" relative="1" as="geometry">
                        <mxPoint x="-14" y="-12" as="offset"/>
                    </mxGeometry>
                </mxCell>
                <mxCell id="T3V68lNRfUXcoH-KaOi2-42" value="" style="endArrow=none;dashed=1;html=1;exitX=0.002;exitY=0.524;exitDx=0;exitDy=0;exitPerimeter=0;entryX=1;entryY=0.523;entryDx=0;entryDy=0;entryPerimeter=0;strokeWidth=2;" parent="1" source="T3V68lNRfUXcoH-KaOi2-28" target="T3V68lNRfUXcoH-KaOi2-28" edge="1">
                    <mxGeometry width="50" height="50" relative="1" as="geometry">
                        <mxPoint x="360" y="390" as="sourcePoint"/>
                        <mxPoint x="410" y="340" as="targetPoint"/>
                    </mxGeometry>
                </mxCell>
                <mxCell id="pP_pCWLIg7NTH3UdQHsi-2" style="edgeStyle=orthogonalEdgeStyle;rounded=0;orthogonalLoop=1;jettySize=auto;html=1;entryX=0.019;entryY=0.198;entryDx=0;entryDy=0;entryPerimeter=0;" parent="1" source="T3V68lNRfUXcoH-KaOi2-18" target="pP_pCWLIg7NTH3UdQHsi-1" edge="1">
                    <mxGeometry relative="1" as="geometry">
                        <mxPoint x="754" y="297" as="targetPoint"/>
                        <Array as="points">
                            <mxPoint x="610" y="297"/>
                            <mxPoint x="610" y="297"/>
                        </Array>
                    </mxGeometry>
                </mxCell>
                <mxCell id="pP_pCWLIg7NTH3UdQHsi-4" value="&lt;div&gt;1.4: guardarRefreshToken(usuario, token)&lt;/div&gt;" style="edgeLabel;html=1;align=center;verticalAlign=middle;resizable=0;points=[];" parent="pP_pCWLIg7NTH3UdQHsi-2" vertex="1" connectable="0">
                    <mxGeometry x="-0.6431" y="1" relative="1" as="geometry">
                        <mxPoint x="72" y="-15" as="offset"/>
                    </mxGeometry>
                </mxCell>
                <mxCell id="T3V68lNRfUXcoH-KaOi2-28" value="alt" style="shape=umlFrame;whiteSpace=wrap;html=1;width=40;height=15;" parent="1" vertex="1">
                    <mxGeometry x="10" y="230" width="770" height="200" as="geometry"/>
                </mxCell>
            </root>
        </mxGraphModel>
    </diagram>
</mxfile>